<svg xmlns="http://www.w3.org/2000/svg" width="467.419" height="54.604" viewBox="0 0 467.419 54.604"><g><path fill="#162514" d="M17.076 18.935l9.638-13.965c1.821-2.629 4.174-3.945 7.059-3.945 2.353 0 4.388.836 6.109 2.504 1.72 1.671 2.581 3.669 2.581 5.996 0 1.721-.456 3.238-1.366 4.555l-8.69 12.635 10.625 13.471c1.062 1.342 1.594 2.91 1.594 4.705 0 2.379-.835 4.421-2.504 6.129-1.67 1.708-3.694 2.562-6.072 2.562-2.605 0-4.591-.847-5.957-2.543l-13.016-16.24v8.955c0 2.556-.443 4.541-1.328 5.958-1.619 2.58-3.972 3.87-7.058 3.87-2.808 0-4.984-.948-6.527-2.846-1.443-1.748-2.164-4.062-2.164-6.946v-33.204c0-2.73.733-4.982 2.201-6.753 1.543-1.872 3.667-2.809 6.375-2.809 2.58 0 4.73.937 6.451 2.809.961 1.038 1.568 2.087 1.821 3.149.152.658.228 1.884.228 3.681v8.272zm47.869-7.323v32.14c0 2.783-.721 5.072-2.163 6.868-1.543 1.974-3.681 2.96-6.413 2.96-2.504 0-4.617-.923-6.337-2.77-1.442-1.544-2.163-3.896-2.163-7.059v-32.14c0-3.593.721-6.198 2.163-7.818 1.644-1.847 3.757-2.77 6.337-2.77 2.581 0 4.692.911 6.337 2.733 1.493 1.67 2.239 4.289 2.239 7.856zm30.729-11.612c6.299-.025 12.091 2.087 17.379 6.337 4.149 3.339 6.223 6.793 6.223 10.359 0 3.035-1.265 5.389-3.794 7.058-1.442.963-3.011 1.442-4.705 1.442-1.392 0-2.72-.329-3.984-.986-.531-.278-1.847-1.556-3.947-3.833-1.948-2.125-4.389-3.188-7.323-3.188-2.833 0-5.206.981-7.115 2.941-1.911 1.961-2.865 4.357-2.865 7.191 0 2.809.955 5.192 2.865 7.153 1.909 1.961 4.269 2.94 7.077 2.94 2.327 0 4.49-.784 6.489-2.353 1.239-1.188 2.467-2.377 3.681-3.567 1.315-1.139 2.985-1.708 5.009-1.708 2.328 0 4.345.816 6.052 2.449 1.708 1.63 2.562 3.61 2.562 5.938 0 3.162-1.859 6.362-5.578 9.6-5.211 4.554-11.232 6.831-18.062 6.831-4.225 0-8.209-.898-11.953-2.694-4.731-2.277-8.494-5.622-11.289-10.037-2.796-4.413-4.193-9.239-4.193-14.477 0-7.841 2.909-14.52 8.728-20.034 5.132-4.858 11.381-7.311 18.743-7.362zm43.829 18.935l9.638-13.965c1.822-2.629 4.174-3.945 7.059-3.945 2.353 0 4.388.836 6.109 2.504 1.72 1.671 2.58 3.669 2.58 5.996 0 1.721-.455 3.238-1.366 4.555l-8.689 12.635 10.625 13.471c1.062 1.342 1.594 2.91 1.594 4.705 0 2.379-.835 4.421-2.504 6.129-1.67 1.708-3.694 2.562-6.071 2.562-2.606 0-4.592-.847-5.958-2.543l-13.016-16.24v8.955c0 2.556-.442 4.541-1.328 5.958-1.619 2.58-3.972 3.87-7.058 3.87-2.808 0-4.984-.948-6.527-2.846-1.442-1.746-2.163-4.061-2.163-6.944v-33.206c0-2.73.733-4.982 2.201-6.753 1.543-1.872 3.668-2.809 6.375-2.809 2.581 0 4.73.937 6.451 2.809.961 1.038 1.568 2.087 1.821 3.149.152.657.228 1.884.228 3.681v8.272z"/><path fill="#5CBC6C" d="M177.737 33.62c1.897 0 3.921.835 6.072 2.505 2.68 2.101 4.515 3.148 5.502 3.148 1.467 0 2.2-.758 2.2-2.275 0-.835-.43-1.543-1.29-2.126-.456-.304-3.012-1.275-7.666-2.922-7.614-2.681-11.421-7.64-11.421-14.875 0-5.463 2.011-9.776 6.033-12.938 3.517-2.757 7.869-4.137 13.055-4.137 4.478 0 8.373 1.069 11.688 3.206 3.313 2.138 4.971 4.89 4.971 8.254 0 2.024-.626 3.713-1.878 5.065-1.252 1.354-2.878 2.029-4.877 2.029-2.1 0-4.427-.998-6.982-2.996-1.593-1.239-2.794-1.859-3.604-1.859-1.391 0-2.087.683-2.087 2.048 0 1.291 1.72 2.468 5.161 3.529 4.756 1.493 8.437 3.314 11.042 5.464 3.465 2.885 5.199 6.933 5.199 12.144 0 5.668-1.948 10.094-5.845 13.281-3.617 2.959-8.322 4.439-14.116 4.439-5.793 0-10.587-1.542-14.381-4.63-3.035-2.453-4.553-5.323-4.553-8.613 0-2.201.746-4.034 2.239-5.502 1.49-1.466 3.338-2.213 5.538-2.239zm45.687-16.316h-4.516c-2.505 0-4.579-.683-6.223-2.049-1.746-1.467-2.62-3.428-2.62-5.882 0-1.467.413-2.877 1.234-4.231.822-1.353 1.885-2.314 3.188-2.884 1.303-.569 4.396-.854 9.278-.854h17.228c4.224 0 6.957.253 8.196.759 1.366.557 2.473 1.513 3.319 2.864.849 1.354 1.272 2.777 1.272 4.27 0 2.353-.937 4.402-2.809 6.148-1.34 1.239-3.529 1.858-6.564 1.858h-3.907v25.804c0 2.808-.479 4.982-1.441 6.525-1.62 2.581-3.959 3.871-7.02 3.871-3.062 0-5.414-1.177-7.059-3.529-1.037-1.467-1.556-3.692-1.556-6.678v-25.992zm41.514 29.18c-.811 1.922-1.645 3.352-2.505 4.287-1.72 1.872-3.807 2.809-6.261 2.809-3.011 0-5.351-1.214-7.02-3.644-.986-1.441-1.479-3.06-1.479-4.856 0-1.492.354-2.999 1.062-4.516l16.202-34.493c1.568-3.363 4.187-5.047 7.854-5.047 3.72 0 6.388 1.732 8.007 5.199l16.355 34.758c.658 1.393.986 2.771.986 4.137 0 2.023-.659 3.82-1.974 5.388-1.721 2.051-3.922 3.074-6.603 3.074-2.201 0-4.035-.684-5.503-2.05-1.088-1.01-2.175-2.693-3.263-5.046h-15.858zm70.939-13.243l4.021 6.45c1.113 1.796 1.67 3.644 1.67 5.54 0 2.404-.829 4.396-2.485 5.977-1.657 1.581-3.687 2.372-6.089 2.372-3.088 0-5.427-1.315-7.021-3.947l-7.135-11.687v7.021c0 2.403-.789 4.439-2.37 6.108-1.582 1.67-3.574 2.505-5.978 2.505-2.935 0-5.16-1.05-6.678-3.15-1.366-1.846-2.049-4.274-2.049-7.285v-31.913c0-6.552 3.529-9.828 10.587-9.828h10.853c3.566 0 6.881 1.031 9.941 3.093 3.062 2.062 5.3 4.737 6.717 8.026 1.062 2.479 1.594 4.97 1.594 7.474.001 4.681-1.859 9.096-5.578 13.244zm20.293-15.937h-4.517c-2.505 0-4.578-.683-6.223-2.049-1.746-1.467-2.619-3.428-2.619-5.882 0-1.467.412-2.877 1.233-4.231.822-1.353 1.885-2.314 3.188-2.884s4.395-.854 9.277-.854h17.229c4.224 0 6.956.253 8.195.759 1.366.557 2.474 1.513 3.321 2.864.847 1.354 1.271 2.777 1.271 4.27 0 2.353-.936 4.402-2.808 6.148-1.341 1.239-3.528 1.858-6.564 1.858h-3.909v25.804c0 2.808-.48 4.982-1.441 6.525-1.619 2.581-3.96 3.871-7.02 3.871-3.061 0-5.414-1.177-7.059-3.529-1.038-1.467-1.555-3.692-1.555-6.678v-25.992zm50.619 19.884h7.762c3.207 0 5.593.658 7.157 1.973 1.844 1.569 2.766 3.593 2.766 6.071 0 2.53-.925 4.579-2.771 6.147-1.441 1.215-3.807 1.821-7.095 1.821h-13.319c-3.138 0-5.287-.24-6.451-.721-2.277-.936-3.782-2.466-4.516-4.592-.456-1.366-.683-3.604-.683-6.717v-28.153c0-2.354.076-3.934.227-4.744.278-1.644.949-3.035 2.013-4.174 1.213-1.291 2.757-2.112 4.629-2.468.885-.15 2.681-.227 5.388-.227h10.208c2.782 0 4.402.025 4.857.076 1.821.177 3.312.708 4.477 1.593 2.074 1.569 3.112 3.618 3.112 6.147 0 2.731-.909 4.819-2.727 6.262-1.616 1.29-3.823 1.936-6.627 1.936h-8.406v3.528h6.699c1.966 0 3.595.519 4.881 1.557 1.361 1.112 2.044 2.643 2.044 4.59 0 4.124-2.512 6.187-7.531 6.187h-6.093v3.908zm54.938-3.947l4.022 6.45c1.113 1.796 1.67 3.644 1.67 5.54 0 2.404-.83 4.396-2.486 5.977s-3.687 2.372-6.09 2.372c-3.087 0-5.427-1.315-7.02-3.947l-7.134-11.687v7.021c0 2.403-.792 4.439-2.372 6.108-1.581 1.67-3.574 2.505-5.977 2.505-2.936 0-5.16-1.05-6.679-3.15-1.366-1.846-2.049-4.274-2.049-7.285v-31.913c0-6.552 3.529-9.828 10.587-9.828h10.853c3.567 0 6.881 1.031 9.941 3.093 3.061 2.062 5.3 4.737 6.717 8.026 1.062 2.479 1.594 4.97 1.594 7.474.001 4.681-1.857 9.096-5.577 13.244z"/></g></svg>