<?xml version="1.0" encoding="utf-8"?>
<!-- Generator: Adobe Illustrator 15.1.0, SVG Export Plug-In . SVG Version: 6.00 Build 0)  -->
<!DOCTYPE svg PUBLIC "-//W3C//DTD SVG 1.1//EN" "http://www.w3.org/Graphics/SVG/1.1/DTD/svg11.dtd">
<svg version="1.1" id="Kickstarter_logo" xmlns="http://www.w3.org/2000/svg" xmlns:xlink="http://www.w3.org/1999/xlink" x="0px"
	 y="0px" width="467.419px" height="54.604px" viewBox="0 0 467.419 54.604" enable-background="new 0 0 467.419 54.604"
	 xml:space="preserve">
<g id="Logo">
	<path id="Grey" fill="#162514" d="M17.076,18.935L26.714,4.97c1.821-2.629,4.174-3.945,7.059-3.945
		c2.353,0,4.388,0.836,6.109,2.504c1.72,1.671,2.581,3.669,2.581,5.996c0,1.721-0.456,3.238-1.366,4.555l-8.69,12.635l10.625,13.471
		c1.062,1.342,1.594,2.91,1.594,4.705c0,2.379-0.835,4.421-2.504,6.129c-1.67,1.708-3.694,2.562-6.072,2.562
		c-2.605,0-4.591-0.847-5.957-2.543l-13.016-16.24v8.955c0,2.556-0.443,4.541-1.328,5.958c-1.619,2.58-3.972,3.87-7.058,3.87
		c-2.808,0-4.984-0.948-6.527-2.846C0.721,48.988,0,46.674,0,43.79V10.586c0-2.73,0.733-4.982,2.201-6.753
		c1.543-1.872,3.667-2.809,6.375-2.809c2.58,0,4.73,0.937,6.451,2.809c0.961,1.038,1.568,2.087,1.821,3.149
		C17,7.64,17.076,8.866,17.076,10.663V18.935z M64.945,11.612v32.14c0,2.783-0.721,5.072-2.163,6.868
		c-1.543,1.974-3.681,2.96-6.413,2.96c-2.504,0-4.617-0.923-6.337-2.77c-1.442-1.544-2.163-3.896-2.163-7.059v-32.14
		c0-3.593,0.721-6.198,2.163-7.818c1.644-1.847,3.757-2.77,6.337-2.77c2.581,0,4.692,0.911,6.337,2.733
		C64.199,5.426,64.945,8.045,64.945,11.612z M95.674,0c6.299-0.025,12.091,2.087,17.379,6.337c4.149,3.339,6.223,6.793,6.223,10.359
		c0,3.035-1.265,5.389-3.794,7.058c-1.442,0.963-3.011,1.442-4.705,1.442c-1.392,0-2.72-0.329-3.984-0.986
		c-0.531-0.278-1.847-1.556-3.947-3.833c-1.948-2.125-4.389-3.188-7.323-3.188c-2.833,0-5.206,0.981-7.115,2.941
		c-1.911,1.961-2.865,4.357-2.865,7.191c0,2.809,0.955,5.192,2.865,7.153c1.909,1.961,4.269,2.94,7.077,2.94
		c2.327,0,4.49-0.784,6.489-2.353c1.239-1.188,2.467-2.377,3.681-3.567c1.315-1.139,2.985-1.708,5.009-1.708
		c2.328,0,4.345,0.816,6.052,2.449c1.708,1.63,2.562,3.61,2.562,5.938c0,3.162-1.859,6.362-5.578,9.6
		c-5.211,4.554-11.232,6.831-18.062,6.831c-4.225,0-8.209-0.898-11.953-2.694c-4.731-2.277-8.494-5.622-11.289-10.037
		c-2.796-4.413-4.193-9.239-4.193-14.477c0-7.841,2.909-14.52,8.728-20.034C82.063,2.504,88.312,0.051,95.674,0z M139.503,18.935
		l9.638-13.965c1.822-2.629,4.174-3.945,7.059-3.945c2.353,0,4.388,0.836,6.109,2.504c1.72,1.671,2.58,3.669,2.58,5.996
		c0,1.721-0.455,3.238-1.366,4.555l-8.689,12.635l10.625,13.471c1.062,1.342,1.594,2.91,1.594,4.705
		c0,2.379-0.835,4.421-2.504,6.129c-1.67,1.708-3.694,2.562-6.071,2.562c-2.606,0-4.592-0.847-5.958-2.543l-13.016-16.24v8.955
		c0,2.556-0.442,4.541-1.328,5.958c-1.619,2.58-3.972,3.87-7.058,3.87c-2.808,0-4.984-0.948-6.527-2.846
		c-1.442-1.746-2.163-4.061-2.163-6.944V10.586c0-2.73,0.733-4.982,2.201-6.753c1.543-1.872,3.668-2.809,6.375-2.809
		c2.581,0,4.73,0.937,6.451,2.809c0.961,1.038,1.568,2.087,1.821,3.149c0.152,0.657,0.228,1.884,0.228,3.681V18.935z"/>
	<path id="Green" fill="#5CBC6C" d="M177.737,33.62c1.897,0,3.921,0.835,6.072,2.505c2.68,2.101,4.515,3.148,5.502,3.148
		c1.467,0,2.2-0.758,2.2-2.275c0-0.835-0.43-1.543-1.29-2.126c-0.456-0.304-3.012-1.275-7.666-2.922
		c-7.614-2.681-11.421-7.64-11.421-14.875c0-5.463,2.011-9.776,6.033-12.938C180.684,1.38,185.036,0,190.222,0
		c4.478,0,8.373,1.069,11.688,3.206c3.313,2.138,4.971,4.89,4.971,8.254c0,2.024-0.626,3.713-1.878,5.065
		c-1.252,1.354-2.878,2.029-4.877,2.029c-2.1,0-4.427-0.998-6.982-2.996c-1.593-1.239-2.794-1.859-3.604-1.859
		c-1.391,0-2.087,0.683-2.087,2.048c0,1.291,1.72,2.468,5.161,3.529c4.756,1.493,8.437,3.314,11.042,5.464
		c3.465,2.885,5.199,6.933,5.199,12.144c0,5.668-1.948,10.094-5.845,13.281c-3.617,2.959-8.322,4.439-14.116,4.439
		c-5.793,0-10.587-1.542-14.381-4.63c-3.035-2.453-4.553-5.323-4.553-8.613c0-2.201,0.746-4.034,2.239-5.502
		C173.689,34.393,175.537,33.646,177.737,33.62z M223.424,17.304h-4.516c-2.505,0-4.579-0.683-6.223-2.049
		c-1.746-1.467-2.62-3.428-2.62-5.882c0-1.467,0.413-2.877,1.234-4.231c0.822-1.353,1.885-2.314,3.188-2.884
		c1.303-0.569,4.396-0.854,9.278-0.854h17.228c4.224,0,6.957,0.253,8.196,0.759c1.366,0.557,2.473,1.513,3.319,2.864
		c0.849,1.354,1.272,2.777,1.272,4.27c0,2.353-0.937,4.402-2.809,6.148c-1.34,1.239-3.529,1.858-6.564,1.858H240.5v25.804
		c0,2.808-0.479,4.982-1.441,6.525c-1.62,2.581-3.959,3.871-7.02,3.871c-3.062,0-5.414-1.177-7.059-3.529
		c-1.037-1.467-1.556-3.692-1.556-6.678V17.304z M264.938,46.484c-0.811,1.922-1.645,3.352-2.505,4.287
		c-1.72,1.872-3.807,2.809-6.261,2.809c-3.011,0-5.351-1.214-7.02-3.644c-0.986-1.441-1.479-3.06-1.479-4.856
		c0-1.492,0.354-2.999,1.062-4.516l16.202-34.493c1.568-3.363,4.187-5.047,7.854-5.047c3.72,0,6.388,1.732,8.007,5.199
		l16.355,34.758c0.658,1.393,0.986,2.771,0.986,4.137c0,2.023-0.659,3.82-1.974,5.388c-1.721,2.051-3.922,3.074-6.603,3.074
		c-2.201,0-4.035-0.684-5.503-2.05c-1.088-1.01-2.175-2.693-3.263-5.046H264.938z M335.877,33.241l4.021,6.45
		c1.113,1.796,1.67,3.644,1.67,5.54c0,2.404-0.829,4.396-2.485,5.977c-1.657,1.581-3.687,2.372-6.089,2.372
		c-3.088,0-5.427-1.315-7.021-3.947l-7.135-11.687v7.021c0,2.403-0.789,4.439-2.37,6.108c-1.582,1.67-3.574,2.505-5.978,2.505
		c-2.935,0-5.16-1.05-6.678-3.15c-1.366-1.846-2.049-4.274-2.049-7.285V11.232c0-6.552,3.529-9.828,10.587-9.828h10.853
		c3.566,0,6.881,1.031,9.941,3.093c3.062,2.062,5.3,4.737,6.717,8.026c1.062,2.479,1.594,4.97,1.594,7.474
		C341.456,24.678,339.596,29.093,335.877,33.241z M356.17,17.304h-4.517c-2.505,0-4.578-0.683-6.223-2.049
		c-1.746-1.467-2.619-3.428-2.619-5.882c0-1.467,0.412-2.877,1.233-4.231c0.822-1.353,1.885-2.314,3.188-2.884
		s4.395-0.854,9.277-0.854h17.229c4.224,0,6.956,0.253,8.195,0.759c1.366,0.557,2.474,1.513,3.321,2.864
		c0.847,1.354,1.271,2.777,1.271,4.27c0,2.353-0.936,4.402-2.808,6.148c-1.341,1.239-3.528,1.858-6.564,1.858h-3.909v25.804
		c0,2.808-0.48,4.982-1.441,6.525c-1.619,2.581-3.96,3.871-7.02,3.871c-3.061,0-5.414-1.177-7.059-3.529
		c-1.038-1.467-1.555-3.692-1.555-6.678V17.304z M406.789,37.188h7.762c3.207,0,5.593,0.658,7.157,1.973
		c1.844,1.569,2.766,3.593,2.766,6.071c0,2.53-0.925,4.579-2.771,6.147c-1.441,1.215-3.807,1.821-7.095,1.821h-13.319
		c-3.138,0-5.287-0.24-6.451-0.721c-2.277-0.936-3.782-2.466-4.516-4.592c-0.456-1.366-0.683-3.604-0.683-6.717V13.017
		c0-2.354,0.076-3.934,0.227-4.744c0.278-1.644,0.949-3.035,2.013-4.174c1.213-1.291,2.757-2.112,4.629-2.468
		c0.885-0.15,2.681-0.227,5.388-0.227h10.208c2.782,0,4.402,0.025,4.857,0.076c1.821,0.177,3.312,0.708,4.477,1.593
		c2.074,1.569,3.112,3.618,3.112,6.147c0,2.731-0.909,4.819-2.727,6.262c-1.616,1.29-3.823,1.936-6.627,1.936h-8.406v3.528h6.699
		c1.966,0,3.595,0.519,4.881,1.557c1.361,1.112,2.044,2.643,2.044,4.59c0,4.124-2.512,6.187-7.531,6.187h-6.093V37.188z
		 M461.727,33.241l4.022,6.45c1.113,1.796,1.67,3.644,1.67,5.54c0,2.404-0.83,4.396-2.486,5.977s-3.687,2.372-6.09,2.372
		c-3.087,0-5.427-1.315-7.02-3.947l-7.134-11.687v7.021c0,2.403-0.792,4.439-2.372,6.108c-1.581,1.67-3.574,2.505-5.977,2.505
		c-2.936,0-5.16-1.05-6.679-3.15c-1.366-1.846-2.049-4.274-2.049-7.285V11.232c0-6.552,3.529-9.828,10.587-9.828h10.853
		c3.567,0,6.881,1.031,9.941,3.093c3.061,2.062,5.3,4.737,6.717,8.026c1.062,2.479,1.594,4.97,1.594,7.474
		C467.305,24.678,465.447,29.093,461.727,33.241z"/>
</g>
</svg>
