<svg xmlns="http://www.w3.org/2000/svg" width="277.73" height="124.396" viewBox="0 0 277.73 124.396"><g fill="#fff"><path d="M67.335 58.215c-9.095 0-16.494 7.399-16.494 16.494s7.399 16.494 16.494 16.494c9.096 0 16.495-7.399 16.495-16.494s-7.4-16.494-16.495-16.494zM128.76 70.069c-.513-14.182-3.062-42.621-3.062-42.621l-10.984.898s2.948-19.315-5.312-23.929c-17.223-9.617-55.38-1.312-64.194 3.999-13.098 7.884-6.993 27.572-6.993 27.572l-36.464 4.392s-2.421 7.274-1.569 33.149c.85 25.875 5.146 35.179 5.146 35.179l97.574 2.686 24.445 13.004-.748-11.398 2.187-.478c-.001-.001.489-28.272-.026-42.453zm-15.637-21.662c0 3.942-3.197 7.141-7.141 7.141s-7.142-3.197-7.142-7.141 3.197-7.142 7.142-7.142c3.944.001 7.141 3.199 7.141 7.142zm-65.682-31.385c5.825-8.409 52.747-13.347 57.393-7.418 7.801 8.271 2.103 19.721 2.103 19.721l-59.149 5.765c-.002-.001-4.441-12.158-.347-18.068zm19.894 78.181c-11.301 0-20.494-9.193-20.494-20.494s9.193-20.494 20.494-20.494 20.495 9.193 20.495 20.494-9.195 20.494-20.495 20.494z"/></g><g fill="#fff"><path d="M140.869 46.302h9.251c6.105 0 10.103 3.182 10.103 8.991v.147c0 6.217-4.516 9.177-10.177 9.25h-2.553v7.513h-6.624v-25.901zm8.955 12.95c2.331 0 3.737-1.369 3.737-3.552v-.111c0-2.368-1.369-3.589-3.774-3.589h-2.294v7.252h2.331zM161.996 46.302h6.66v25.901h-6.66v-25.901zM171.06 59.512v-.444c0-7.992 5.217-13.21 12.024-13.21 4.07 0 6.847 1.592 8.954 4.07l-4.292 4.551c-1.11-1.332-2.516-2.44-4.551-2.44-3.034 0-5.292 2.701-5.292 7.104v.147c0 4.626 2.294 7.179 5.292 7.179 2.22 0 3.552-1.185 4.736-2.553l4.218 4.292c-2.109 2.59-4.995 4.439-9.324 4.439-6.622 0-11.765-5.069-11.765-13.135zM198.995 52.296h-6.401v-5.994h19.464v5.994h-6.401v19.907h-6.66l-.002-19.907zM213.608 61.953v-15.651h6.697v15.726c0 3.108 1.518 4.59 3.812 4.59 2.331 0 3.812-1.406 3.812-4.479v-15.837h6.733v15.541c0 7.511-4.256 10.805-10.583 10.805s-10.471-3.331-10.471-10.695zM237.399 46.302h10.176c3.479 0 6.105.925 7.771 2.627 1.442 1.443 2.258 3.441 2.258 6.068v.185c0 3.85-1.889 6.254-4.626 7.623l5.329 9.398h-7.513l-4.402-8.029h-2.368v8.029h-6.624l-.001-25.901zm9.917 12.58c2.257 0 3.589-1.295 3.589-3.367v-.073c0-2.221-1.405-3.331-3.626-3.331h-3.256v6.771h3.293zM259.747 46.302h17.836v5.846h-11.249v4.257h10.14v5.513h-10.14v4.439h11.396v5.848h-17.983v-25.903z"/></g><g fill="#fff"><path d="M140.869 75.153h9.251c6.105 0 10.103 3.183 10.103 8.991v.148c0 6.216-4.516 9.176-10.177 9.25h-2.553v7.512h-6.624v-25.901zm8.955 12.951c2.331 0 3.737-1.369 3.737-3.552v-.112c0-2.367-1.369-3.589-3.774-3.589h-2.294v7.252l2.331.001zM161.996 75.153h6.66v25.901h-6.66v-25.901zM177.017 81.147h-6.401v-5.994h19.463v5.994h-6.401v19.907h-6.659l-.002-19.907zM190.152 88.364v-.444c0-7.993 5.217-13.21 12.024-13.21 4.07 0 6.847 1.591 8.954 4.07l-4.292 4.551c-1.109-1.332-2.516-2.441-4.551-2.441-3.034 0-5.292 2.701-5.292 7.104v.146c0 4.626 2.294 7.179 5.292 7.179 2.22 0 3.552-1.185 4.736-2.553l4.218 4.292c-2.109 2.59-4.995 4.44-9.324 4.44-6.623.001-11.765-5.068-11.765-13.134zM212.868 75.153h6.661v9.843h7.363v-9.843h6.696v25.901h-6.696v-9.99h-7.363v9.99h-6.661v-25.901zM236.548 75.153h17.836v5.847h-11.249v4.256h10.14v5.513h-10.14v4.44h11.396v5.847h-17.983v-25.903zM256.787 75.153h10.176c3.479 0 6.105.926 7.771 2.628 1.442 1.442 2.258 3.44 2.258 6.067v.186c0 3.849-1.888 6.254-4.626 7.623l5.329 9.397h-7.512l-4.403-8.029h-2.368v8.029h-6.624l-.001-25.901zm9.917 12.58c2.257 0 3.589-1.295 3.589-3.366v-.073c0-2.221-1.404-3.331-3.626-3.331h-3.256v6.771h3.293z"/></g></svg>