<?xml version="1.0" encoding="utf-8"?>
<!-- Generator: Adobe Illustrator 15.1.0, SVG Export Plug-In  -->
<!DOCTYPE svg PUBLIC "-//W3C//DTD SVG 1.1//EN" "http://www.w3.org/Graphics/SVG/1.1/DTD/svg11.dtd" [
	<!ENTITY ns_flows "http://ns.adobe.com/Flows/1.0/">
]>
<svg version="1.1"
	 xmlns="http://www.w3.org/2000/svg" xmlns:xlink="http://www.w3.org/1999/xlink" xmlns:a="http://ns.adobe.com/AdobeSVGViewerExtensions/3.0/"
	 x="0px" y="0px" width="278px" height="124px" viewBox="0 0 278 124" overflow="visible" enable-background="new 0 0 278 124"
	 xml:space="preserve">
<defs>
</defs>
<path fill="#457CB4" d="M67.335,58.215c-9.095,0-16.494,7.399-16.494,16.494s7.399,16.494,16.494,16.494
	c9.095,0,16.495-7.399,16.495-16.494S76.43,58.215,67.335,58.215z"/>
<path fill="#457CB4" d="M128.761,70.071c-0.513-14.183-3.062-42.622-3.062-42.622l-10.984,0.899c0,0,2.948-19.316-5.313-23.929
	C92.179-5.2,54.022,3.106,45.208,8.417C32.11,16.3,38.215,35.989,38.215,35.989L1.751,40.38c0,0-2.421,7.274-1.57,33.149
	c0.85,25.875,5.146,35.179,5.146,35.179l97.574,2.687l24.445,13.004L126.598,113l2.187-0.478
	C128.785,112.522,129.275,84.25,128.761,70.071z M113.123,48.409c0,3.943-3.197,7.141-7.141,7.141s-7.141-3.197-7.141-7.141
	c0-3.944,3.197-7.141,7.141-7.141S113.123,44.464,113.123,48.409z M47.441,17.023c5.825-8.41,52.747-13.347,57.393-7.418
	c7.801,8.27,2.102,19.72,2.102,19.72L47.787,35.09C47.786,35.089,43.347,22.933,47.441,17.023z M67.335,95.205
	c-11.301,0-20.494-9.193-20.494-20.494s9.193-20.494,20.494-20.494S87.83,63.41,87.83,74.709S78.636,95.205,67.335,95.205z"/>
<path fill="#457CB4" d="M140.869,45.302h9.251c6.104,0,10.103,3.182,10.103,8.991v0.148c0,6.216-4.516,9.176-10.177,9.25h-2.553
	v7.512h-6.624V45.302z M149.824,58.252c2.33,0,3.736-1.369,3.736-3.552v-0.111c0-2.368-1.369-3.589-3.773-3.589h-2.294v7.252
	H149.824z"/>
<path fill="#457CB4" d="M161.996,45.302h6.66v25.901h-6.66V45.302z"/>
<path fill="#457CB4" d="M171.061,58.512v-0.444c0-7.993,5.217-13.21,12.024-13.21c4.07,0,6.847,1.591,8.954,4.07l-4.292,4.551
	c-1.11-1.332-2.517-2.441-4.552-2.441c-3.033,0-5.291,2.701-5.291,7.104v0.147c0,4.626,2.294,7.179,5.291,7.179
	c2.221,0,3.553-1.185,4.736-2.553l4.219,4.292c-2.109,2.59-4.996,4.439-9.324,4.439C176.203,71.649,171.061,66.58,171.061,58.512z"
	/>
<path fill="#457CB4" d="M198.995,51.296h-6.401v-5.994h19.463v5.994h-6.4v19.907h-6.66L198.995,51.296L198.995,51.296z"/>
<path fill="#457CB4" d="M213.607,60.955V45.302h6.697v15.726c0,3.108,1.519,4.59,3.812,4.59c2.331,0,3.812-1.406,3.812-4.479V45.302
	h6.733v15.541c0,7.511-4.256,10.806-10.583,10.806S213.607,68.319,213.607,60.955z"/>
<path fill="#457CB4" d="M237.398,45.302h10.177c3.479,0,6.104,0.925,7.771,2.627c1.443,1.443,2.258,3.441,2.258,6.068v0.185
	c0,3.849-1.888,6.253-4.625,7.623l5.328,9.398h-7.512l-4.402-8.029h-2.369v8.029H237.4V45.302H237.398z M247.316,57.882
	c2.257,0,3.589-1.295,3.589-3.367v-0.073c0-2.221-1.405-3.331-3.626-3.331h-3.256v6.771H247.316z"/>
<path fill="#457CB4" d="M259.747,45.302h17.836v5.846h-11.249v4.256h10.139v5.513h-10.139v4.44h11.396v5.847h-17.983V45.302z"/>
<path fill="#457CB4" d="M140.869,77.155h9.251c6.104,0,10.103,3.182,10.103,8.99v0.148c0,6.216-4.516,9.176-10.177,9.25h-2.553
	v7.512h-6.624V77.155z M149.824,90.104c2.33,0,3.736-1.369,3.736-3.552v-0.11c0-2.368-1.369-3.59-3.773-3.59h-2.294v7.252H149.824z"
	/>
<path fill="#457CB4" d="M161.996,77.155h6.66v25.9h-6.66V77.155z"/>
<path fill="#457CB4" d="M177.018,83.149h-6.401v-5.994h19.463v5.994h-6.401v19.906h-6.66V83.149L177.018,83.149z"/>
<path fill="#457CB4" d="M190.152,90.365V89.92c0-7.993,5.217-13.21,12.024-13.21c4.07,0,6.847,1.591,8.954,4.07l-4.292,4.551
	c-1.11-1.332-2.516-2.44-4.551-2.44c-3.034,0-5.292,2.7-5.292,7.104v0.146c0,4.627,2.294,7.18,5.292,7.18
	c2.22,0,3.552-1.186,4.735-2.553l4.219,4.291c-2.109,2.59-4.995,4.44-9.324,4.44C195.294,103.5,190.152,98.43,190.152,90.365z"/>
<path fill="#457CB4" d="M212.868,77.155h6.661v9.842h7.363v-9.842h6.696v25.9h-6.696v-9.99h-7.363v9.99h-6.661V77.155z"/>
<path fill="#457CB4" d="M236.548,77.155h17.836V83h-11.249v4.256h10.139v5.514h-10.139v4.439h11.396v5.848h-17.983V77.155z"/>
<path fill="#457CB4" d="M256.787,77.155h10.176c3.479,0,6.105,0.925,7.771,2.627c1.442,1.443,2.258,3.441,2.258,6.068v0.185
	c0,3.849-1.889,6.254-4.626,7.623l5.329,9.397h-7.512l-4.404-8.029h-2.367v8.029h-6.624L256.787,77.155L256.787,77.155z
	 M266.704,89.735c2.257,0,3.589-1.295,3.589-3.367v-0.073c0-2.221-1.404-3.331-3.626-3.331h-3.256v6.771H266.704z"/>
</svg>
