<?xml version="1.0" encoding="utf-8"?>
<!-- Generator: Adobe Illustrator 15.1.0, SVG Export Plug-In . SVG Version: 6.00 Build 0)  -->
<!DOCTYPE svg PUBLIC "-//W3C//DTD SVG 1.1//EN" "http://www.w3.org/Graphics/SVG/1.1/DTD/svg11.dtd">
<svg version="1.1" id="Layer_1" xmlns="http://www.w3.org/2000/svg" xmlns:xlink="http://www.w3.org/1999/xlink" x="0px" y="0px"
	 width="277.73px" height="124.396px" viewBox="0 0 277.73 124.396" enable-background="new 0 0 277.73 124.396"
	 xml:space="preserve">
<g>
	<path fill="#FFFFFF" d="M67.335,58.215c-9.095,0-16.494,7.399-16.494,16.494s7.399,16.494,16.494,16.494
		c9.096,0,16.495-7.399,16.495-16.494S76.43,58.215,67.335,58.215z"/>
	<path fill="#FFFFFF" d="M128.76,70.069c-0.513-14.182-3.062-42.621-3.062-42.621l-10.984,0.898c0,0,2.948-19.315-5.312-23.929
		C92.179-5.2,54.022,3.105,45.208,8.416C32.11,16.3,38.215,35.988,38.215,35.988L1.751,40.38c0,0-2.421,7.274-1.569,33.149
		c0.85,25.875,5.146,35.179,5.146,35.179l97.574,2.686l24.445,13.004l-0.748-11.398l2.187-0.478
		C128.785,112.521,129.275,84.25,128.76,70.069z M113.123,48.407c0,3.942-3.197,7.141-7.141,7.141c-3.944,0-7.142-3.197-7.142-7.141
		c0-3.944,3.197-7.142,7.142-7.142C109.926,41.266,113.123,44.464,113.123,48.407z M47.441,17.022
		c5.825-8.409,52.747-13.347,57.393-7.418c7.801,8.271,2.103,19.721,2.103,19.721l-59.149,5.765
		C47.786,35.089,43.347,22.932,47.441,17.022z M67.335,95.203c-11.301,0-20.494-9.193-20.494-20.494s9.193-20.494,20.494-20.494
		S87.83,63.408,87.83,74.709S78.635,95.203,67.335,95.203z"/>
</g>
<g>
	<path fill="#FFFFFF" d="M140.869,46.302h9.251c6.105,0,10.103,3.182,10.103,8.991v0.147c0,6.217-4.516,9.177-10.177,9.25h-2.553
		v7.513h-6.624V46.302z M149.824,59.252c2.331,0,3.737-1.369,3.737-3.552v-0.111c0-2.368-1.369-3.589-3.774-3.589h-2.294v7.252
		H149.824z"/>
	<path fill="#FFFFFF" d="M161.996,46.302h6.66v25.901h-6.66V46.302z"/>
	<path fill="#FFFFFF" d="M171.06,59.512v-0.444c0-7.992,5.217-13.21,12.024-13.21c4.07,0,6.847,1.592,8.954,4.07l-4.292,4.551
		c-1.11-1.332-2.516-2.44-4.551-2.44c-3.034,0-5.292,2.701-5.292,7.104v0.147c0,4.626,2.294,7.179,5.292,7.179
		c2.22,0,3.552-1.185,4.736-2.553l4.218,4.292c-2.109,2.59-4.995,4.439-9.324,4.439C176.203,72.647,171.06,67.578,171.06,59.512z"/>
	<path fill="#FFFFFF" d="M198.995,52.296h-6.401v-5.994h19.464v5.994h-6.401v19.907h-6.66L198.995,52.296L198.995,52.296z"/>
	<path fill="#FFFFFF" d="M213.608,61.953V46.302h6.697v15.726c0,3.108,1.518,4.59,3.812,4.59c2.331,0,3.812-1.406,3.812-4.479
		V46.302h6.733v15.541c0,7.511-4.256,10.805-10.583,10.805S213.608,69.317,213.608,61.953z"/>
	<path fill="#FFFFFF" d="M237.399,46.302h10.176c3.479,0,6.105,0.925,7.771,2.627c1.442,1.443,2.258,3.441,2.258,6.068v0.185
		c0,3.85-1.889,6.254-4.626,7.623l5.329,9.398h-7.513l-4.402-8.029h-2.368v8.029H237.4L237.399,46.302L237.399,46.302z
		 M247.316,58.882c2.257,0,3.589-1.295,3.589-3.367v-0.073c0-2.221-1.405-3.331-3.626-3.331h-3.256v6.771H247.316z"/>
	<path fill="#FFFFFF" d="M259.747,46.302h17.836v5.846h-11.249v4.257h10.14v5.513h-10.14v4.439h11.396v5.848h-17.983V46.302z"/>
</g>
<g>
	<path fill="#FFFFFF" d="M140.869,75.153h9.251c6.105,0,10.103,3.183,10.103,8.991v0.148c0,6.216-4.516,9.176-10.177,9.25h-2.553
		v7.512h-6.624V75.153z M149.824,88.104c2.331,0,3.737-1.369,3.737-3.552V84.44c0-2.367-1.369-3.589-3.774-3.589h-2.294v7.252
		L149.824,88.104L149.824,88.104z"/>
	<path fill="#FFFFFF" d="M161.996,75.153h6.66v25.901h-6.66V75.153z"/>
	<path fill="#FFFFFF" d="M177.017,81.147h-6.401v-5.994h19.463v5.994h-6.401v19.907h-6.659L177.017,81.147L177.017,81.147z"/>
	<path fill="#FFFFFF" d="M190.152,88.364v-0.444c0-7.993,5.217-13.21,12.024-13.21c4.07,0,6.847,1.591,8.954,4.07l-4.292,4.551
		c-1.109-1.332-2.516-2.441-4.551-2.441c-3.034,0-5.292,2.701-5.292,7.104v0.146c0,4.626,2.294,7.179,5.292,7.179
		c2.22,0,3.552-1.185,4.736-2.553l4.218,4.292c-2.109,2.59-4.995,4.44-9.324,4.44C195.294,101.499,190.152,96.43,190.152,88.364z"/>
	<path fill="#FFFFFF" d="M212.868,75.153h6.661v9.843h7.363v-9.843h6.696v25.901h-6.696v-9.99h-7.363v9.99h-6.661V75.153z"/>
	<path fill="#FFFFFF" d="M236.548,75.153h17.836v5.847h-11.249v4.256h10.14v5.513h-10.14v4.44h11.396v5.847h-17.983V75.153z"/>
	<path fill="#FFFFFF" d="M256.787,75.153h10.176c3.479,0,6.105,0.926,7.771,2.628c1.442,1.442,2.258,3.44,2.258,6.067v0.186
		c0,3.849-1.888,6.254-4.626,7.623l5.329,9.397h-7.512l-4.403-8.029h-2.368v8.029h-6.624L256.787,75.153L256.787,75.153z
		 M266.704,87.733c2.257,0,3.589-1.295,3.589-3.366v-0.073c0-2.221-1.404-3.331-3.626-3.331h-3.256v6.771H266.704z"/>
</g>
</svg>
