<?xml version="1.0" encoding="utf-8"?>
<!-- Generator: Adobe Illustrator 15.1.0, SVG Export Plug-In  -->
<!DOCTYPE svg PUBLIC "-//W3C//DTD SVG 1.1//EN" "http://www.w3.org/Graphics/SVG/1.1/DTD/svg11.dtd" [
	<!ENTITY ns_flows "http://ns.adobe.com/Flows/1.0/">
]>
<svg version="1.1"
	 xmlns="http://www.w3.org/2000/svg" xmlns:xlink="http://www.w3.org/1999/xlink" xmlns:a="http://ns.adobe.com/AdobeSVGViewerExtensions/3.0/"
	 x="0px" y="0px" width="278px" height="124px" viewBox="0 0 278 124" overflow="visible" enable-background="new 0 0 278 124"
	 xml:space="preserve">
<defs>
</defs>
<path fill="#50556C" d="M67.335,58.215c-9.095,0-16.494,7.399-16.494,16.494s7.399,16.494,16.494,16.494S83.83,83.804,83.83,74.709
	S76.43,58.215,67.335,58.215z"/>
<path fill="#50556C" d="M128.761,70.07c-0.513-14.182-3.062-42.622-3.062-42.622l-10.984,0.899c0,0,2.948-19.316-5.313-23.929
	C92.179-5.2,54.022,3.106,45.208,8.417C32.11,16.3,38.215,35.988,38.215,35.988L1.751,40.38c0,0-2.421,7.274-1.57,33.149
	c0.85,25.875,5.146,35.179,5.146,35.179l97.574,2.686l24.445,13.004l-0.748-11.399l2.187-0.477
	C128.785,112.522,129.275,84.25,128.761,70.07z M113.123,48.408c0,3.943-3.197,7.141-7.141,7.141s-7.141-3.197-7.141-7.141
	s3.197-7.141,7.141-7.141S113.123,44.464,113.123,48.408z M47.441,17.023c5.825-8.41,52.747-13.347,57.393-7.418
	c7.801,8.27,2.102,19.72,2.102,19.72l-59.149,5.765C47.786,35.089,43.347,22.932,47.441,17.023z M67.335,95.204
	c-11.301,0-20.494-9.193-20.494-20.494s9.193-20.494,20.494-20.494S87.83,63.409,87.83,74.709S78.636,95.204,67.335,95.204z"/>
<path fill="#50556C" d="M140.869,46.302h9.251c6.105,0,10.102,3.182,10.102,8.991v0.148c0,6.216-4.515,9.176-10.176,9.25h-2.553
	v7.512h-6.624V46.302z M149.824,59.252c2.331,0,3.737-1.369,3.737-3.552v-0.111c0-2.368-1.369-3.589-3.774-3.589h-2.294v7.252
	H149.824z"/>
<path fill="#50556C" d="M161.996,46.302h6.66v25.901h-6.66V46.302z"/>
<path fill="#50556C" d="M171.06,59.512v-0.444c0-7.993,5.217-13.21,12.025-13.21c4.07,0,6.846,1.591,8.954,4.07l-4.292,4.551
	c-1.11-1.332-2.516-2.441-4.551-2.441c-3.034,0-5.292,2.701-5.292,7.104v0.147c0,4.626,2.294,7.179,5.292,7.179
	c2.22,0,3.552-1.185,4.736-2.553l4.218,4.292c-2.109,2.59-4.995,4.44-9.324,4.44C176.203,72.648,171.06,67.579,171.06,59.512z"/>
<path fill="#50556C" d="M198.995,52.296h-6.401v-5.994h19.463v5.994h-6.401v19.907h-6.66V52.296z"/>
<path fill="#50556C" d="M213.608,61.954V46.302h6.697v15.726c0,3.108,1.518,4.589,3.812,4.589c2.331,0,3.812-1.406,3.812-4.478
	V46.302h6.734v15.541c0,7.511-4.256,10.805-10.583,10.805S213.608,69.318,213.608,61.954z"/>
<path fill="#50556C" d="M237.399,46.302h10.176c3.479,0,6.105,0.925,7.771,2.627c1.443,1.443,2.258,3.441,2.258,6.068v0.185
	c0,3.849-1.888,6.254-4.626,7.623l5.329,9.398h-7.512l-4.403-8.029h-2.368v8.029h-6.624V46.302z M247.316,58.882
	c2.257,0,3.589-1.295,3.589-3.367v-0.073c0-2.221-1.405-3.331-3.626-3.331h-3.256v6.771H247.316z"/>
<path fill="#50556C" d="M259.747,46.302h17.836v5.846h-11.249v4.256h10.139v5.513h-10.139v4.44h11.396v5.847h-17.983V46.302z"/>
<path fill="#50556C" d="M140.869,75.154h9.251c6.105,0,10.102,3.182,10.102,8.991v0.148c0,6.216-4.515,9.176-10.176,9.25h-2.553
	v7.512h-6.624V75.154z M149.824,88.104c2.331,0,3.737-1.369,3.737-3.552v-0.111c0-2.368-1.369-3.589-3.774-3.589h-2.294v7.252
	H149.824z"/>
<path fill="#50556C" d="M161.996,75.154h6.66v25.901h-6.66V75.154z"/>
<path fill="#50556C" d="M177.017,81.148h-6.401v-5.994h19.463v5.994h-6.401v19.907h-6.66V81.148z"/>
<path fill="#50556C" d="M190.152,88.364v-0.444c0-7.993,5.217-13.21,12.025-13.21c4.07,0,6.846,1.591,8.954,4.07l-4.292,4.551
	c-1.11-1.332-2.516-2.441-4.551-2.441c-3.034,0-5.292,2.701-5.292,7.104v0.147c0,4.626,2.294,7.179,5.292,7.179
	c2.22,0,3.552-1.185,4.736-2.553l4.218,4.292c-2.109,2.59-4.995,4.44-9.324,4.44C195.294,101.5,190.152,96.43,190.152,88.364z"/>
<path fill="#50556C" d="M212.868,75.154h6.661v9.842h7.363v-9.842h6.697v25.901h-6.697v-9.99h-7.363v9.99h-6.661V75.154z"/>
<path fill="#50556C" d="M236.548,75.154h17.836V81h-11.249v4.256h10.139v5.513h-10.139v4.44h11.396v5.847h-17.983V75.154z"/>
<path fill="#50556C" d="M256.787,75.154h10.176c3.479,0,6.105,0.925,7.771,2.627c1.443,1.443,2.258,3.441,2.258,6.068v0.185
	c0,3.849-1.888,6.254-4.626,7.623l5.329,9.398h-7.512l-4.403-8.029h-2.368v8.029h-6.624V75.154z M266.704,87.734
	c2.257,0,3.589-1.295,3.589-3.367v-0.073c0-2.221-1.405-3.331-3.626-3.331h-3.256v6.771H266.704z"/>
</svg>
