<!DOCTYPE svg PUBLIC "-//W3C//DTD SVG 1.1//EN" "http://www.w3.org/Graphics/SVG/1.1/DTD/svg11.dtd" [
	<!ENTITY ns_flows "http://ns.adobe.com/Flows/1.0/">
]><svg xmlns="http://www.w3.org/2000/svg" width="278" height="124" viewBox="0 0 278 124" overflow="visible"><path fill="#457CB4" d="M67.335 58.215c-9.095 0-16.494 7.399-16.494 16.494s7.399 16.494 16.494 16.494c9.095 0 16.495-7.399 16.495-16.494s-7.4-16.494-16.495-16.494zM128.761 70.071c-.513-14.183-3.062-42.622-3.062-42.622l-10.984.899s2.948-19.316-5.313-23.929c-17.223-9.619-55.38-1.313-64.194 3.998-13.098 7.883-6.993 27.572-6.993 27.572l-36.464 4.391s-2.421 7.274-1.57 33.149c.85 25.875 5.146 35.179 5.146 35.179l97.574 2.687 24.445 13.004-.748-11.399 2.187-.478s.49-28.272-.024-42.451zm-15.638-21.662c0 3.943-3.197 7.141-7.141 7.141s-7.141-3.197-7.141-7.141 3.197-7.141 7.141-7.141 7.141 3.196 7.141 7.141zm-65.682-31.386c5.825-8.41 52.747-13.347 57.393-7.418 7.801 8.27 2.102 19.72 2.102 19.72l-59.149 5.765c-.001-.001-4.44-12.157-.346-18.067zm19.894 78.182c-11.301 0-20.494-9.193-20.494-20.494s9.193-20.494 20.494-20.494 20.495 9.193 20.495 20.492-9.194 20.496-20.495 20.496zM140.869 45.302h9.251c6.104 0 10.103 3.182 10.103 8.991v.148c0 6.216-4.516 9.176-10.177 9.25h-2.553v7.512h-6.624v-25.901zm8.955 12.95c2.33 0 3.736-1.369 3.736-3.552v-.111c0-2.368-1.369-3.589-3.773-3.589h-2.294v7.252h2.331zM161.996 45.302h6.66v25.901h-6.66v-25.901zM171.061 58.512v-.444c0-7.993 5.217-13.21 12.024-13.21 4.07 0 6.847 1.591 8.954 4.07l-4.292 4.551c-1.11-1.332-2.517-2.441-4.552-2.441-3.033 0-5.291 2.701-5.291 7.104v.147c0 4.626 2.294 7.179 5.291 7.179 2.221 0 3.553-1.185 4.736-2.553l4.219 4.292c-2.109 2.59-4.996 4.439-9.324 4.439-6.623.003-11.765-5.066-11.765-13.134zM198.995 51.296h-6.401v-5.994h19.463v5.994h-6.4v19.907h-6.66l-.002-19.907zM213.607 60.955v-15.653h6.697v15.726c0 3.108 1.519 4.59 3.812 4.59 2.331 0 3.812-1.406 3.812-4.479v-15.837h6.733v15.541c0 7.511-4.256 10.806-10.583 10.806s-10.471-3.33-10.471-10.694zM237.398 45.302h10.177c3.479 0 6.104.925 7.771 2.627 1.443 1.443 2.258 3.441 2.258 6.068v.185c0 3.849-1.888 6.253-4.625 7.623l5.328 9.398h-7.512l-4.402-8.029h-2.369v8.029h-6.624v-25.901h-.002zm9.918 12.58c2.257 0 3.589-1.295 3.589-3.367v-.073c0-2.221-1.405-3.331-3.626-3.331h-3.256v6.771h3.293zM259.747 45.302h17.836v5.846h-11.249v4.256h10.139v5.513h-10.139v4.44h11.396v5.847h-17.983v-25.902zM140.869 77.155h9.251c6.104 0 10.103 3.182 10.103 8.99v.148c0 6.216-4.516 9.176-10.177 9.25h-2.553v7.512h-6.624v-25.9zm8.955 12.949c2.33 0 3.736-1.369 3.736-3.552v-.11c0-2.368-1.369-3.59-3.773-3.59h-2.294v7.252h2.331zM161.996 77.155h6.66v25.9h-6.66v-25.9zM177.018 83.149h-6.401v-5.994h19.463v5.994h-6.401v19.906h-6.66v-19.906h-.001zM190.152 90.365v-.445c0-7.993 5.217-13.21 12.024-13.21 4.07 0 6.847 1.591 8.954 4.07l-4.292 4.551c-1.11-1.332-2.516-2.44-4.551-2.44-3.034 0-5.292 2.7-5.292 7.104v.146c0 4.627 2.294 7.18 5.292 7.18 2.22 0 3.552-1.186 4.735-2.553l4.219 4.291c-2.109 2.59-4.995 4.44-9.324 4.44-6.623.001-11.765-5.069-11.765-13.134zM212.868 77.155h6.661v9.842h7.363v-9.842h6.696v25.9h-6.696v-9.99h-7.363v9.99h-6.661v-25.9zM236.548 77.155h17.836v5.845h-11.249v4.256h10.139v5.514h-10.139v4.439h11.396v5.848h-17.983v-25.902zM256.787 77.155h10.176c3.479 0 6.105.925 7.771 2.627 1.442 1.443 2.258 3.441 2.258 6.068v.185c0 3.849-1.889 6.254-4.626 7.623l5.329 9.397h-7.512l-4.404-8.029h-2.367v8.029h-6.624l-.001-25.9zm9.917 12.58c2.257 0 3.589-1.295 3.589-3.367v-.073c0-2.221-1.404-3.331-3.626-3.331h-3.256v6.771h3.293z"/></svg>