<svg xmlns="http://www.w3.org/2000/svg" width="985.455" height="715.758" viewBox="0 0 985.455 715.758"><path stroke="#fff" stroke-width="40" stroke-miterlimit="10" fill="none" d="M20 20h945.455v675.758h-945.455z"/><path fill="#fff" stroke="#fff" stroke-width="10" stroke-miterlimit="10" d="M184.364 585.19l172-293.405 92 117.124 162.728-246.341 180 422.622z"/><path fill="#fff" d="M453.225 89.495c-.067.004-.091.065-.144.117-9.006 8.997-31.521 32.376-34.383 35.361-1.705-1.152-3.461-2.178-5-3.534-.526-1.189-1.145-2.433-1.466-3.69-.209-1.252-.294-2.626-1.114-3.677-1.988 2.295-3.499 5.182-6.357 6.538-2.186 1.489-4.229 3.062-6.468 4.433-.535-.511-.977-1.294-1.807-1.317-5.626.818-10.738 3.61-16.259 4.807-1.567.382-2.324 1.958-3.827 2.424-1.529.349-2.542 1.62-3.842 2.346-4.927 2.318-8.956 6.253-12.336 10.44-1.563 2.054-3.785 3.328-5.545 5.177-2.272 4.128-5.831 7.24-8.543 11.084-1.442 2.253-3.889 3.545-5.75 5.39-1.843 1.538-3.488 3.223-5.282 4.776-1.893 1.445-1.457 4.492-3.444 5.834-3.71 2.884-8.293 4.317-12.819 5.349-11.644 2.244-23.425 3.623-35.244 3.979-9.174.321-18.992.968-26.885 6.037-5.729 3.737-10.516 8.598-15.063 13.66-1.707 2.206-4.669 2.81-6.446 4.936-2.365 2.63-4.901 5.177-6.386 8.415-1.211 2.303-1.521 4.953-2.168 7.44-.651 2.71-.735 5.438-.64 8.222.178 3.908-.447 7.743-.343 11.643.167 2.792.527 5.651.339 8.436-.045 2.013-.428 4.048-.496 6.067-.279 3.651-1.5 7.094-1.728 10.743-.234 3.027-1.815 5.777-1.615 8.854-.062 2.762-1.575 5.283-2.05 8.01-.928 3.52-1.373 7.217-3.047 10.518-2.429 5.736-5.109 11.838-4.479 18.225-.074 3.188-.584 6.297-.04 9.455-.127 2.229 1.434 4.076 3.162 5.281.642.443 1.526 1.367 2.307.449 1.263-.645 1.897-1.936 2.777-2.973 2.414-2.404 5.11-4.631 6.704-7.713 1.33-2.904 3.533-5.309 5.297-7.93 1.675-2.355 2.554-5.238 4.672-7.285 1.923-2.105 3.825-4.295 4.897-6.998.057 2.84-.49 5.709-.488 8.529.526 3.688.796 7.33 1.478 11.01-.321 1.898-2.297 3.387-2.945 3.768-.915.713-2.655 1.234-2.181 2.166 1.167 2.453 3.181 4.404 4.194 6.941.817 1.727 1.788 3.398 3.06 4.795 2.502-1.652 3.423-4.783 4.65-7.365.805-3.217 1.479-7.031 2.713-9.68 1.262-3.016 2.053-6.361 1.545-9.602-.634-4.293-.605-8.691-.961-12.986.029-5.277.761-10.639 3.203-15.402 2.609-5.475 7.163-9.598 11.367-13.812 2.211-2.189 4.178-4.562 6.293-6.86 1.943 2.579 2.932 5.747 3.902 8.79 1.647 6.244 1.637 12.822 3.757 18.943.844 1.27 2.099 2.121 3.35 2.951 4.7 2.852 8.918 6.4 13.286 9.695 2.448 1.879 5.005 3.758 6.861 6.289.828 1.078 1.493 2.354 2.341 3.418 1.783 1.92 3.789 3.59 5.579 5.455 2.445-.963 5.338-2.879 7.907-1.248 1.332.391 1.748 1.891 2.092 3.043-.077.941-.483 2.189-.262 2.779 5.347.123 10.637-1.391 15.486-3.621-.877-3.059-3.976-4.584-5.475-6.158-2.187-2.059-5.277-2.555-7.708-4.238-3.037-2.078-6.145-4.203-9.163-6.314-2.379-1.666-4.353-3.635-6.674-5.395-3.522-2.35-6.592-5.406-8.661-9.145-1.496-3.307-3.098-6.686-3.707-10.275-1.006-4.285-.513-8.742-.979-13.064-.424-4.484-1.506-9.131.127-13.478.388-.631.422-1.954 1.347-2.07 2.895-.384 5.796-.458 8.716-.229 5.893.455 11.863.883 17.786.408 10.074-.563 19.736-3.903 29.451-6.412 1.259-.294 2.483-.491 3.764-.714 1.178 2.024 2.492 3.97 3.808 5.917 1.445 2.594 2.449 5.446 3.603 8.172 1.755 4.274 4.21 8.234 5.336 12.742.353 2.023 1.504 3.82 1.42 5.91-.238 1.826-.95 3.586-2.181 4.975-2.949 3.621-5.135 7.754-8.146 11.342-.521.961-1.661.646-2.573.713-.354-.725-1.303-.936-1.992-1.361-1.475-.053-3.034.227-3.818 1.662-1.399 2.34-2.594 4.695-4.345 6.787-.812 1.252-1.799 2.551-1.767 4.123 2.257.365 4.479.445 6.75.523l-.063.098.311-.15.263.031-.019-.084c2.891-.975 5.351-2.797 8.438-3.146 1.26-.191 2.595.312 3.855.119 1.889-.621 3.394-2.174 4.773-3.562 1.635-1.625 2.435-3.816 3.545-5.777 1.434-2.551 2.94-4.973 4.458-7.492.874-1.66 2.508-2.809 3.291-4.525 1.997-3.549.786-7.699.622-11.535-1.932-7.833-1.889-16.004-1.935-24.013 4.469 3.75 8.726 7.756 12.883 11.825 2.18 2.264 4.578 4.404 6.271 7.096.745 1.385 2.356 2.042 3.402 3.196 1.542 1.744 3.375 3.16 5.227 4.59 3.883 3.092 9.998 6.451 19.067 16.904 1.448.115 2.632.939 3.774 1.746-.107 1.146-.461 2.559.093 3.643.551.732.79 1.215 1.134 1.719 4.259-.279 8.515-1.436 12.284-3.455.784-.572 2.156-1.273 1.787-2.422-1.381-1.582-3.048-2.787-4.696-4.111l-.146.119c-2.261-2.508-5.995-2.652-8.303-5.049-2.522-2.467-5.064-4.859-7.871-7.021-3.721-3.404-7.044-7.289-9.992-11.412-3.134-4.409-7.271-8.01-10.236-12.554-1.657-2.522-3.458-4.802-4.9-7.469-3.028-4.982-5.623-10.197-8.808-15.071-.352-.601-.837-1.141-.984-1.836-.355-2.618.353-5.338.27-7.971.013-2.298-.629-4.432-.907-6.698-.411-2.986.452-5.99.831-8.94 1.103-7.653 3.988-14.881 5.9-22.354 1.322-5.199 1.988-10.883 5.752-15.002 3.291 1.852 6.875 2.837 10.588 3.371 4.183 1.687 8.531 3.145 12.851 4.43 2.056.49 2.681 2.665 4.289 3.772.794.577 1.685 1.154 2.726 1.208 2.184.637 4.277-.499 6.325-1.086 1.584-.76 2.846-2.346 3.318-4.021.493-1.806 1.344-3.42 1.604-5.276.143-1.929-1.15-3.505-2.162-4.988-3.132-5.459-8.771-8.625-12.497-13.604-1.299-1.276-1.37-3.236-1.725-4.913-.519-3.575-1.688-7.188-4.062-9.947 4.284-5.464 22.281-28.482 30.029-38.613.291-.424-.459-1.532-.94-1.516zm-204.366 172.121c-.307-2.731.263-5.445.134-8.195-.117-3.847-.014-7.745.097-11.594 1.948 3.41 3.537 7.083 4.108 10.959-.575 3.295-2.197 6.333-4.339 8.83zM500.109 111.417l-11.856-10.383-15.274 3.881 6.21-14.485-8.411-13.327 15.695 1.43 10.077-12.117 3.488 15.368 14.639 5.839-13.538 8.067zM333.265 89.495l-4.333-8.779-9.688-1.408 7.01-6.833-1.654-9.649 8.665 4.556 8.665-4.556-1.656 9.649 7.01 6.833-9.687 1.408zM487.728 232.629l-15.932-6.849-14.674 9.241 1.59-17.268-13.323-11.1 16.915-3.823 6.439-16.102 8.863 14.905 17.304 1.148-11.436 13.036zM184.364 393.234l-5.688-11.526-12.72-1.848 9.204-8.971-2.173-12.668 11.377 5.98 11.377-5.98-2.173 12.668 9.204 8.971-12.719 1.848zM165.956 478.509l-8.016-16.24-17.921-2.605 12.968-12.642-3.061-17.849 16.03 8.428 16.03-8.428-3.061 17.849 12.969 12.642-17.922 2.605zM229.69 181.48l-24.351-10.422-22.391 14.151 2.388-26.379-20.378-16.922 25.826-5.882 9.797-24.609 13.574 22.745 26.433 1.712-17.438 19.938z"/></svg>