<?xml version="1.0" encoding="utf-8"?>
<!-- Generator: Adobe Illustrator 15.1.0, SVG Export Plug-In  -->
<!DOCTYPE svg PUBLIC "-//W3C//DTD SVG 1.1//EN" "http://www.w3.org/Graphics/SVG/1.1/DTD/svg11.dtd" [
	<!ENTITY ns_flows "http://ns.adobe.com/Flows/1.0/">
]>
<svg version="1.1"
	 xmlns="http://www.w3.org/2000/svg" xmlns:xlink="http://www.w3.org/1999/xlink" xmlns:a="http://ns.adobe.com/AdobeSVGViewerExtensions/3.0/"
	 x="0px" y="0px" width="985px" height="716px" viewBox="0 0 985 716" overflow="visible" enable-background="new 0 0 985 716"
	 xml:space="preserve">
<defs>
</defs>
<rect x="20" y="20" fill="none" stroke="#FFFFFF" stroke-width="40" stroke-miterlimit="10" width="945.455" height="675.758"/>
<polygon fill="#FFFFFF" points="589.897,251.876 607.101,229.332 633.592,246.55 664.5,215.642 689.095,261.759 716.369,243.813 
	664.405,135.919 582.178,238.147 "/>
<polygon fill="#FFFFFF" points="720.748,252.903 685.432,276.14 662.027,232.257 634.935,259.349 609.426,242.77 588.629,270.022 
	575.426,246.542 570.647,252.482 560.274,268.625 558.766,267.254 471.516,375.728 420.318,333.392 405.994,323.815 
	384.375,351.891 358.292,333.83 324.344,345.298 289.893,322.773 254.64,343.788 253.919,342.849 104.849,584.818 880.606,584.818 
	"/>
<polygon fill="#FFFFFF" points="290.195,310.52 326.101,333.995 360.241,322.463 381.818,337.402 398.683,315.501 313.939,245.424 
	264.342,325.931 "/>
</svg>
