<?xml version="1.0" encoding="utf-8"?>
<!-- Generator: Adobe Illustrator 15.1.0, SVG Export Plug-In . SVG Version: 6.00 Build 0)  -->
<!DOCTYPE svg PUBLIC "-//W3C//DTD SVG 1.1//EN" "http://www.w3.org/Graphics/SVG/1.1/DTD/svg11.dtd">
<svg version="1.1" id="Layer_1" xmlns="http://www.w3.org/2000/svg" xmlns:xlink="http://www.w3.org/1999/xlink" x="0px" y="0px"
	 width="985.455px" height="715.758px" viewBox="0 0 985.455 715.758" enable-background="new 0 0 985.455 715.758"
	 xml:space="preserve">
<rect x="20" y="20" fill="none" stroke="#FFFFFF" stroke-width="40" stroke-miterlimit="10" width="945.455" height="675.758"/>
<polygon fill="#FFFFFF" stroke="#FFFFFF" stroke-width="10" stroke-miterlimit="10" points="184.364,585.19 356.364,291.785 
	448.364,408.909 611.092,162.568 791.092,585.19 "/>
<path fill="#FFFFFF" d="M453.225,89.495c-0.067,0.004-0.091,0.065-0.144,0.117c-9.006,8.997-31.521,32.376-34.383,35.361
	c-1.705-1.152-3.461-2.178-5-3.534c-0.526-1.189-1.145-2.433-1.466-3.69c-0.209-1.252-0.294-2.626-1.114-3.677
	c-1.988,2.295-3.499,5.182-6.357,6.538c-2.186,1.489-4.229,3.062-6.468,4.433c-0.535-0.511-0.977-1.294-1.807-1.317
	c-5.626,0.818-10.738,3.61-16.259,4.807c-1.567,0.382-2.324,1.958-3.827,2.424c-1.529,0.349-2.542,1.62-3.842,2.346
	c-4.927,2.318-8.956,6.253-12.336,10.44c-1.563,2.054-3.785,3.328-5.545,5.177c-2.272,4.128-5.831,7.24-8.543,11.084
	c-1.442,2.253-3.889,3.545-5.75,5.39c-1.843,1.538-3.488,3.223-5.282,4.776c-1.893,1.445-1.457,4.492-3.444,5.834
	c-3.71,2.884-8.293,4.317-12.819,5.349c-11.644,2.244-23.425,3.623-35.244,3.979c-9.174,0.321-18.992,0.968-26.885,6.037
	c-5.729,3.737-10.516,8.598-15.063,13.66c-1.707,2.206-4.669,2.81-6.446,4.936c-2.365,2.63-4.901,5.177-6.386,8.415
	c-1.211,2.303-1.521,4.953-2.168,7.44c-0.651,2.71-0.735,5.438-0.64,8.222c0.178,3.908-0.447,7.743-0.343,11.643
	c0.167,2.792,0.527,5.651,0.339,8.436c-0.045,2.013-0.428,4.048-0.496,6.067c-0.279,3.651-1.5,7.094-1.728,10.743
	c-0.234,3.027-1.815,5.777-1.615,8.854c-0.062,2.762-1.575,5.283-2.05,8.01c-0.928,3.52-1.373,7.217-3.047,10.518
	c-2.429,5.736-5.109,11.838-4.479,18.225c-0.074,3.188-0.584,6.297-0.04,9.455c-0.127,2.229,1.434,4.076,3.162,5.281
	c0.642,0.443,1.526,1.367,2.307,0.449c1.263-0.645,1.897-1.936,2.777-2.973c2.414-2.404,5.11-4.631,6.704-7.713
	c1.33-2.904,3.533-5.309,5.297-7.93c1.675-2.355,2.554-5.238,4.672-7.285c1.923-2.105,3.825-4.295,4.897-6.998
	c0.057,2.84-0.49,5.709-0.488,8.529c0.526,3.688,0.796,7.33,1.478,11.01c-0.321,1.898-2.297,3.387-2.945,3.768
	c-0.915,0.713-2.655,1.234-2.181,2.166c1.167,2.453,3.181,4.404,4.194,6.941c0.817,1.727,1.788,3.398,3.06,4.795
	c2.502-1.652,3.423-4.783,4.65-7.365c0.805-3.217,1.479-7.031,2.713-9.68c1.262-3.016,2.053-6.361,1.545-9.602
	c-0.634-4.293-0.605-8.691-0.961-12.986c0.029-5.277,0.761-10.639,3.203-15.402c2.609-5.475,7.163-9.598,11.367-13.812
	c2.211-2.189,4.178-4.562,6.293-6.86c1.943,2.579,2.932,5.747,3.902,8.79c1.647,6.244,1.637,12.822,3.757,18.943
	c0.844,1.27,2.099,2.121,3.35,2.951c4.7,2.852,8.918,6.4,13.286,9.695c2.448,1.879,5.005,3.758,6.861,6.289
	c0.828,1.078,1.493,2.354,2.341,3.418c1.783,1.92,3.789,3.59,5.579,5.455c2.445-0.963,5.338-2.879,7.907-1.248
	c1.332,0.391,1.748,1.891,2.092,3.043c-0.077,0.941-0.483,2.189-0.262,2.779c5.347,0.123,10.637-1.391,15.486-3.621
	c-0.877-3.059-3.976-4.584-5.475-6.158c-2.187-2.059-5.277-2.555-7.708-4.238c-3.037-2.078-6.145-4.203-9.163-6.314
	c-2.379-1.666-4.353-3.635-6.674-5.395c-3.522-2.35-6.592-5.406-8.661-9.145c-1.496-3.307-3.098-6.686-3.707-10.275
	c-1.006-4.285-0.513-8.742-0.979-13.064c-0.424-4.484-1.506-9.131,0.127-13.478c0.388-0.631,0.422-1.954,1.347-2.07
	c2.895-0.384,5.796-0.458,8.716-0.229c5.893,0.455,11.863,0.883,17.786,0.408c10.074-0.563,19.736-3.903,29.451-6.412
	c1.259-0.294,2.483-0.491,3.764-0.714c1.178,2.024,2.492,3.97,3.808,5.917c1.445,2.594,2.449,5.446,3.603,8.172
	c1.755,4.274,4.21,8.234,5.336,12.742c0.353,2.023,1.504,3.82,1.42,5.91c-0.238,1.826-0.95,3.586-2.181,4.975
	c-2.949,3.621-5.135,7.754-8.146,11.342c-0.521,0.961-1.661,0.646-2.573,0.713c-0.354-0.725-1.303-0.936-1.992-1.361
	c-1.475-0.053-3.034,0.227-3.818,1.662c-1.399,2.34-2.594,4.695-4.345,6.787c-0.812,1.252-1.799,2.551-1.767,4.123
	c2.257,0.365,4.479,0.445,6.75,0.523c-0.01,0.039-0.054,0.064-0.063,0.098c0.112-0.031,0.195-0.109,0.311-0.15
	c0.062,0.006,0.197,0.027,0.263,0.031c0.006-0.025-0.024-0.057-0.019-0.084c2.891-0.975,5.351-2.797,8.438-3.146
	c1.26-0.191,2.595,0.312,3.855,0.119c1.889-0.621,3.394-2.174,4.773-3.562c1.635-1.625,2.435-3.816,3.545-5.777
	c1.434-2.551,2.94-4.973,4.458-7.492c0.874-1.66,2.508-2.809,3.291-4.525c1.997-3.549,0.786-7.699,0.622-11.535
	c-1.932-7.833-1.889-16.004-1.935-24.013c4.469,3.75,8.726,7.756,12.883,11.825c2.18,2.264,4.578,4.404,6.271,7.096
	c0.745,1.385,2.356,2.042,3.402,3.196c1.542,1.744,3.375,3.16,5.227,4.59c3.883,3.092,9.998,6.451,19.067,16.904
	c1.448,0.115,2.632,0.939,3.774,1.746c-0.107,1.146-0.461,2.559,0.093,3.643c0.551,0.732,0.79,1.215,1.134,1.719
	c4.259-0.279,8.515-1.436,12.284-3.455c0.784-0.572,2.156-1.273,1.787-2.422c-1.381-1.582-3.048-2.787-4.696-4.111
	c-0.029,0.031-0.118,0.088-0.146,0.119c-2.261-2.508-5.995-2.652-8.303-5.049c-2.522-2.467-5.064-4.859-7.871-7.021
	c-3.721-3.404-7.044-7.289-9.992-11.412c-3.134-4.409-7.271-8.01-10.236-12.554c-1.657-2.522-3.458-4.802-4.9-7.469
	c-3.028-4.982-5.623-10.197-8.808-15.071c-0.352-0.601-0.837-1.141-0.984-1.836c-0.355-2.618,0.353-5.338,0.27-7.971
	c0.013-2.298-0.629-4.432-0.907-6.698c-0.411-2.986,0.452-5.99,0.831-8.94c1.103-7.653,3.988-14.881,5.9-22.354
	c1.322-5.199,1.988-10.883,5.752-15.002c3.291,1.852,6.875,2.837,10.588,3.371c4.183,1.687,8.531,3.145,12.851,4.43
	c2.056,0.49,2.681,2.665,4.289,3.772c0.794,0.577,1.685,1.154,2.726,1.208c2.184,0.637,4.277-0.499,6.325-1.086
	c1.584-0.76,2.846-2.346,3.318-4.021c0.493-1.806,1.344-3.42,1.604-5.276c0.143-1.929-1.15-3.505-2.162-4.988
	c-3.132-5.459-8.771-8.625-12.497-13.604c-1.299-1.276-1.37-3.236-1.725-4.913c-0.519-3.575-1.688-7.188-4.062-9.947
	c4.284-5.464,22.281-28.482,30.029-38.613C454.456,90.587,453.706,89.479,453.225,89.495z M248.859,261.616
	c-0.307-2.731,0.263-5.445,0.134-8.195c-0.117-3.847-0.014-7.745,0.097-11.594c1.948,3.41,3.537,7.083,4.108,10.959
	C252.623,256.081,251.001,259.119,248.859,261.616z"/>
<polygon fill="#FFFFFF" points="500.109,111.417 488.253,101.034 472.979,104.915 479.189,90.43 470.778,77.103 486.473,78.533 
	496.55,66.416 500.038,81.784 514.677,87.623 501.139,95.69 "/>
<polygon fill="#FFFFFF" points="333.265,89.495 328.932,80.716 319.244,79.308 326.254,72.475 324.6,62.826 333.265,67.382 
	341.93,62.826 340.274,72.475 347.284,79.308 337.597,80.716 "/>
<polygon fill="#FFFFFF" points="487.728,232.629 471.796,225.78 457.122,235.021 458.712,217.753 445.389,206.653 462.304,202.83 
	468.743,186.728 477.606,201.633 494.91,202.781 483.474,215.817 "/>
<polygon fill="#FFFFFF" points="184.364,393.234 178.676,381.708 165.956,379.86 175.16,370.889 172.987,358.221 184.364,364.201 
	195.741,358.221 193.568,370.889 202.772,379.86 190.053,381.708 "/>
<polygon fill="#FFFFFF" points="165.956,478.509 157.94,462.269 140.019,459.664 152.987,447.022 149.926,429.173 165.956,437.601 
	181.986,429.173 178.925,447.022 191.894,459.664 173.972,462.269 "/>
<polygon fill="#FFFFFF" points="229.69,181.48 205.339,171.058 182.948,185.209 185.336,158.83 164.958,141.908 190.784,136.026 
	200.581,111.417 214.155,134.162 240.588,135.874 223.15,155.812 "/>
</svg>
