<?xml version="1.0" encoding="utf-8"?>
<!-- Generator: Adobe Illustrator 15.1.0, SVG Export Plug-In  -->
<!DOCTYPE svg PUBLIC "-//W3C//DTD SVG 1.1//EN" "http://www.w3.org/Graphics/SVG/1.1/DTD/svg11.dtd" [
	<!ENTITY ns_flows "http://ns.adobe.com/Flows/1.0/">
]>
<svg version="1.1"
	 xmlns="http://www.w3.org/2000/svg" xmlns:xlink="http://www.w3.org/1999/xlink" xmlns:a="http://ns.adobe.com/AdobeSVGViewerExtensions/3.0/"
	 x="0px" y="0px" width="66px" height="100px" viewBox="17.026 -0.001 66 100"
	 overflow="visible" enable-background="new 17.026 -0.001 66 100" xml:space="preserve">
<defs>
</defs>
<path fill="#FFFFFF" d="M0,37.526v24.295v10.412v27.768h65.947V72.233V61.821V37.526H0z M6.943,44.468h20.825v17.354H6.943V44.468z
	 M6.943,93.06V72.233h20.825v20.824H6.943V93.06z M59.006,93.06H38.181V72.233h20.825V93.06z M59.006,44.468v17.354H38.181V44.468
	H59.006z"/>
<path fill="#FFFFFF" d="M56.966,26.286c0.24-0.21,0.518-0.41,0.734-0.625c2.742-2.742,4.455-5.786,4.951-8.804
	c0.611-3.686-0.559-7.122-3.371-9.935c-5.111-5.115-12.656-4.503-18.742,1.579c-2.537,2.541-4.053,6.076-5.016,9.539
	c-1.27-4.9-3.746-10.11-6.644-13.01c-6.088-6.081-13.63-6.698-18.741-1.579C7.324,6.264,6.157,9.7,6.765,13.386
	c0.499,3.018,2.21,6.062,4.952,8.804c1.539,1.539,3.73,2.93,6.146,4.096H0v6.942h65.947v-6.942H56.966z M45.449,13.41
	c1.982-1.981,4.026-3.073,5.752-3.073c1.131,0,2.17,0.488,3.174,1.493c1.213,1.215,1.67,2.452,1.43,3.896
	c-0.258,1.556-1.325,3.34-3.01,5.026c-2.31,2.309-7.75,4.506-11.77,5.261C41.526,22.163,42.613,16.25,45.449,13.41z M13.615,12.255
	c-0.236-1.444,0.217-2.681,1.435-3.896c1.003-1.005,2.04-1.494,3.171-1.494c1.727,0,3.769,1.092,5.75,3.073
	c2.854,2.856,4.974,9.101,5.456,12.769c-4.063-0.529-10.286-2.912-12.8-5.425C14.942,15.596,13.872,13.811,13.615,12.255z"/>
</svg>
