<?xml version="1.0" encoding="utf-8"?>
<!-- Generator: Adobe Illustrator 15.1.0, SVG Export Plug-In  -->
<!DOCTYPE svg PUBLIC "-//W3C//DTD SVG 1.1//EN" "http://www.w3.org/Graphics/SVG/1.1/DTD/svg11.dtd" [
	<!ENTITY ns_flows "http://ns.adobe.com/Flows/1.0/">
]>
<svg version="1.1"
	 xmlns="http://www.w3.org/2000/svg" xmlns:xlink="http://www.w3.org/1999/xlink" xmlns:a="http://ns.adobe.com/AdobeSVGViewerExtensions/3.0/"
	 x="0px" y="0px" width="965px" height="696px" viewBox="0 0 965 696" overflow="visible" enable-background="new 0 0 965 696"
	 xml:space="preserve">
<defs>
</defs>
<rect x="10" y="10" fill="none" stroke="#FFFFFF" stroke-width="20" stroke-miterlimit="10" width="945.455" height="675.758"/>
<polygon fill="#FFFFFF" points="579.897,241.876 597.101,219.332 623.592,236.55 654.5,205.642 679.095,251.759 706.369,233.813 
	654.405,125.919 572.178,228.147 "/>
<polygon fill="#FFFFFF" points="710.748,242.903 675.432,266.14 652.027,222.257 624.935,249.349 599.426,232.77 578.629,260.022 
	565.426,236.542 560.647,242.482 550.274,258.625 548.766,257.254 461.516,365.728 410.318,323.392 395.994,313.815 
	374.375,341.891 348.292,323.83 314.344,335.298 279.893,312.773 244.64,333.788 243.919,332.849 94.849,574.818 870.606,574.818 
	"/>
<polygon fill="#FFFFFF" points="280.195,300.52 316.101,323.995 350.241,312.463 371.818,327.402 388.683,305.501 303.939,235.424 
	254.342,315.931 "/>
</svg>
